<?xml version="1.0" encoding="UTF-8" standalone="no"?>
<!-- Created with Inkscape (http://www.inkscape.org/) -->

<svg
   xmlns:dc="http://purl.org/dc/elements/1.1/"
   xmlns:cc="http://creativecommons.org/ns#"
   xmlns:rdf="http://www.w3.org/1999/02/22-rdf-syntax-ns#"
   xmlns:svg="http://www.w3.org/2000/svg"
   xmlns="http://www.w3.org/2000/svg"
   xmlns:sodipodi="http://sodipodi.sourceforge.net/DTD/sodipodi-0.dtd"
   xmlns:inkscape="http://www.inkscape.org/namespaces/inkscape"
   width="566.27045"
   height="185.74817"
   id="svg1341"
   sodipodi:version="0.32"
   inkscape:version="0.48.4 r9939"
   sodipodi:docname="agpl.svg"
   inkscape:output_extension="org.inkscape.output.svg.inkscape"
   version="1.0">
  <sodipodi:namedview
     id="base"
     pagecolor="#ffffff"
     bordercolor="#666666"
     borderopacity="1.0"
     inkscape:pageopacity="0.0"
     inkscape:pageshadow="2"
     inkscape:zoom="2.0218016"
     inkscape:cx="344.42217"
     inkscape:cy="-8.6362609"
     inkscape:document-units="px"
     inkscape:current-layer="layer1"
     inkscape:window-width="2175"
     inkscape:window-height="1687"
     inkscape:window-x="629"
     inkscape:window-y="219"
     showguides="true"
     inkscape:guide-bbox="true"
     width="18in"
     height="12in"
     units="mm"
     showborder="true"
     showgrid="false"
     fit-margin-top="0"
     fit-margin-left="0"
     fit-margin-right="0"
     fit-margin-bottom="0"
     inkscape:window-maximized="0">
    <sodipodi:guide
       orientation="horizontal"
       position="-491.1811,1185.0722"
       id="guide2344" />
    <sodipodi:guide
       orientation="horizontal"
       position="-491.1811,1333.5513"
       id="guide2346" />
    <sodipodi:guide
       orientation="vertical"
       position="-1311.3042,-700.31393"
       id="guide3321" />
    <sodipodi:guide
       orientation="vertical"
       position="-609.76511,-700.31393"
       id="guide3323" />
    <sodipodi:guide
       orientation="horizontal"
       position="-491.1811,265.49506"
       id="guide5223" />
    <sodipodi:guide
       orientation="horizontal"
       position="-491.1811,129.70038"
       id="guide5235" />
  </sodipodi:namedview>
  <defs
     id="defs1343" />
  <metadata
     id="metadata1346">
    <rdf:RDF>
      <cc:Work
         rdf:about="">
        <dc:format>image/svg+xml</dc:format>
        <dc:type
           rdf:resource="http://purl.org/dc/dcmitype/StillImage" />
        <dc:title></dc:title>
      </cc:Work>
    </rdf:RDF>
  </metadata>
  <g
     inkscape:label="Layer 1"
     id="layer1"
     inkscape:groupmode="layer"
     transform="translate(-491.1811,-193.9379)">
    <path
       inkscape:connector-curvature="0"
       style="fill:#bd0000;fill-opacity:1;fill-rule:evenodd;stroke:none"
       id="path3550"
       d="m 812.8205,338.38086 c 0,0 -0.0121,0 -0.0121,0 -1.06996,0 -2.01468,0.35296 -2.90262,1.07016 -0.66022,0.5235 -1.11566,1.22943 -1.47991,2.01489 0,0 0.0456,0 0.0456,0 0.36423,-0.78546 0.81968,-1.49139 1.46842,-2.01489 0.88793,-0.7172 1.83265,-1.05867 2.88006,-1.07016 z" />
    <path
       inkscape:connector-curvature="0"
       style="fill:#bd0000;fill-opacity:1;fill-rule:evenodd;stroke:none"
       id="path3554"
       d="m 812.85454,338.38086 c -0.0121,0 -0.0227,0 -0.034,0 1.10419,0.0121 1.83267,0.38719 2.32214,1.1954 0.21625,0.34148 0.33,0.85371 0.33,1.50245 0,0.11404 -0.0227,0.26195 -0.034,0.3872 0,0 0.0454,0 0.0454,0 0,-0.12532 0.0227,-0.27323 0.0227,-0.3872 0,-0.64874 -0.10243,-1.16097 -0.31874,-1.50245 -0.48947,-0.81968 -1.22941,-1.1954 -2.3336,-1.1954 z" />
    <path
       inkscape:connector-curvature="0"
       style="fill:#ffffff;fill-opacity:0;fill-rule:evenodd;stroke:#663266;stroke-width:5.69160366;stroke-linecap:butt;stroke-linejoin:miter;stroke-miterlimit:4;stroke-opacity:1"
       d="m 841.877,356.07675 c 0.46217,1.18788 0.92414,2.37397 1.4055,3.53395 0.74134,1.57605 1.59801,3.08465 2.62821,4.49293 5.56447,7.56392 14.88329,11.70546 26.71477,12.73664 0,0 12.72694,0 12.72694,0 4.02403,-0.31399 8.24075,-0.89922 12.6114,-1.75412 7.53781,-1.47397 15.52827,-3.73814 23.82679,-6.76401 6.28641,-2.29208 12.74614,-5.00397 19.30201,-8.15588 14.2769,-6.84395 29.02544,-15.67072 43.49482,-26.32303 4.76537,-3.50526 9.33801,-7.10194 13.72806,-10.75915 4.024,-3.34818 7.8844,-6.74859 11.5717,-10.18638 10.2911,-9.91771 18.0601,-19.99034 22.4597,-28.83471 4.5823,-9.21021 5.497,-17.08494 1.7424,-22.04577 -2.3008,-3.04506 -6.1517,-4.67692 -11.1095,-5.06093 22.3346,-16.75868 35.3502,-37.08793 30.6812,-49.90529 -1.4827,-4.0905 -4.7462,-7.14229 -9.4249,-8.82994 -2.0794,-0.74786 -4.4187,-1.2217 -6.9699,-1.43736 0,0 -6.8737,0 -6.8737,0 -9.598,0.69227 -23.5555,4.12908 -35.39669,9.93215"
       sodipodi:nodetypes="cccccssccccscccsccc"
       id="path3618" />
    <path
       inkscape:connector-curvature="0"
       id="path3552"
       style="fill:#663366;fill-opacity:1;fill-rule:evenodd;stroke:none"
       d="m 530.77332,201.23647 c 0,0 -39.59222,172.74015 -39.59222,172.74015 0.0114,0 104.15059,0 104.17337,0 45.79959,0 183.16282,0 183.16282,0 2e-4,0 95.26323,0 95.26323,0 -11.34894,-0.99044 -20.30906,-4.97448 -25.64777,-12.23687 -0.99023,-1.34339 -1.80853,-2.79044 -2.52554,-4.30438 -0.45543,-1.11547 -0.88359,-2.24103 -1.31628,-3.37924 -1.1384,-3.62002 -1.59228,-7.63671 -1.38731,-11.91694 0.56922,-11.92964 6.16691,-26.11985 15.86541,-40.9796 10.30172,-15.7918 25.23229,-32.34332 43.71859,-47.70263 4.14352,-3.43998 8.42791,-6.83702 12.91272,-10.13832 5.54369,-4.07842 11.13011,-7.83475 16.71911,-11.34754 20.59218,-12.96437 41.1333,-22.03588 59.3351,-26.64374 -17.39359,5.67446 -36.9342,15.30785 -56.24017,28.42239 -0.69444,0.4689 -1.38018,0.94928 -2.06336,1.42293 -10.71147,7.42185 -20.41568,15.3041 -28.88475,23.2643 -27.25154,25.62363 -41.65544,52.17498 -35.11004,67.73016 0.46672,1.06995 1.02306,2.09164 1.67181,3.05932 7.03487,10.34722 24.4696,12.13577 46.56443,6.5808 1.50265,-0.37552 3.0053,-0.80109 4.55326,-1.24505 7.05762,-2.03745 14.5507,-4.78949 22.26853,-8.1816 1.85543,-0.81968 3.73082,-1.66191 5.62046,-2.56132 0.1935,-0.091 0.37552,-0.18202 0.56901,-0.28451 24.36018,-12.10373 43.08132,-26.03081 47.13363,-34.39859 0.88795,-1.82019 1.10141,-3.3721 0.49798,-4.58888 -2.89134,-5.86242 -23.12343,-1.90189 -47.63161,8.7152 -1.96917,0.8539 -3.9613,1.73236 -5.97618,2.66797 1.63916,-1.52183 3.34541,-3.04962 5.08686,-4.55326 2.77758,-2.39277 5.65329,-4.73252 8.71537,-7.04339 4.79227,-3.62891 9.63716,-6.90961 14.40689,-9.81798 22.33382,-16.84948 33.62463,-32.7881 31.26823,-38.70295 -0.444,-1.11446 -1.3887,-1.88094 -2.8458,-2.34786 -4.65579,-1.48089 -13.15335,0.28669 -23.47783,4.51785 -8.51478,3.49242 -18.29437,8.67187 -28.20912,15.11833 0,0 -1.35169,0.88934 -1.35169,0.88934 0,0 -0.2491,0.14229 -0.2491,0.14229 0,0 -4.76653,3.16596 -4.76653,3.16596 0,0 2.739,-5.01563 2.739,-5.01563 4.06379,-7.43908 10.68318,-15.20064 18.92452,-22.41079 6.04444,-5.27166 12.94992,-10.23862 20.38305,-14.58475 2.8116,-1.64609 5.61906,-3.17484 8.43068,-4.55326 2.88006,-1.40708 5.76132,-2.65748 8.57292,-3.77077 8.1687,-3.23046 17.1423,-7.31008 23.9425,-7.84387 -0.6192,0 -20.2784,2.11678 -20.2784,2.11678 0,0 -64.38629,0 -64.38629,0 0,0 -283.9042,0 -283.9042,0 0,0 -126.65529,0 -126.65529,0 z m 308.39515,0.24908 c -1.11547,17.02578 2.18562,41.96348 9.67574,69.65087 1.3319,4.92661 2.78174,9.94045 4.3754,15.01168 0.99042,3.13153 2.01211,6.214 3.05931,9.24878 -0.61472,0.90378 -1.23357,1.802 -1.81426,2.70359 -9.34554,14.3222 -14.8081,27.85754 -16.18552,39.6277 -3.95003,-13.2273 -6.92367,-27.71549 -8.60855,-43.07835 -0.478,-4.40173 -0.85213,-8.75437 -1.1026,-13.05498 -1.84414,-31.23895 2.23389,-59.55708 10.60048,-80.10929 z m -186.5066,22.1615 c 0.21308,-0.005 0.42319,0 0.64024,0 0,0 42.08238,0 42.08238,0 3.59707,0 6.37881,0.67427 8.35946,2.02775 1.96918,1.36139 2.70775,3.12243 2.24102,5.26472 0,0 -5.01563,22.65968 -5.01563,22.65968 0,0 -14.83382,0 -14.83382,0 0,0 4.87338,-22.05486 4.87338,-22.05486 0,0 -37.13759,0 -37.13759,0 0,0 -13.41089,60.61537 -13.41089,60.61537 0,0 -4.83798,21.94841 -4.83798,21.94841 0,0 37.10216,0 37.10216,0 0,0 0.0357,-0.1423 0.0357,-0.1423 0,0 7.43471,-33.58067 7.43471,-33.58067 0,0 -17.43056,0 -17.43056,0 0,0 1.67201,-7.57678 1.67201,-7.57678 0,-1.9e-4 32.2642,0 32.2642,0 0,-1.9e-4 -9.24878,41.90433 -9.24878,41.90433 -0.12531,0.59651 -0.34446,1.13684 -0.64044,1.67202 -0.76271,1.38867 -2.09303,2.57813 -3.94844,3.55729 -2.57261,1.35446 -5.65172,2.02753 -9.249,2.02753 0,0 -42.04657,0 -42.04657,0 -3.59707,0 -6.37881,-0.67307 -8.35965,-2.02753 -1.96918,-1.35467 -2.71912,-3.08465 -2.24101,-5.22931 0,0 18.53337,-83.77323 18.53337,-83.77323 0.478,-2.14229 1.96918,-3.90333 4.55306,-5.26473 0.0912,-0.0491 0.1937,-0.0601 0.28471,-0.10659 2.35854,-1.18135 5.12643,-1.84551 8.32404,-1.9211 z m 65.95152,0 c -2.1e-4,0 52.96736,0 52.96736,0 3.55156,0 6.34319,0.67427 8.32405,2.02775 1.99192,1.36139 2.75463,3.12243 2.27663,5.26472 0,0 -9.88922,44.67913 -9.88922,44.67913 -0.46671,2.12865 -1.99351,3.86536 -4.58888,5.22913 -2.59536,1.36831 -5.65032,2.06315 -9.21337,2.06315 0,0 -38.48947,0 -38.48947,0 0,0 -7.43452,33.54486 -7.43452,33.54486 0,0 -1.20944,5.51381 -1.20944,5.51381 0,0 -14.5137,0 -14.5137,0 0,0 1.1028,-4.98022 1.1028,-4.98022 0,0 20.66776,-93.34233 20.66776,-93.34233 z m 73.17255,0 c 0,0 14.51351,0 14.51351,0 0,0 -16.43442,74.23994 -16.43442,74.23994 0,0 -3.59291,16.22113 -3.59291,16.22113 0,0 34.7189,0 34.7189,0 0.36424,2.66244 0.7896,5.2776 1.24505,7.86148 0,0 -52.22049,0 -52.22049,0 0,0 4.12631,-18.64001 4.12631,-18.64001 0,0 17.64405,-79.68254 17.64405,-79.68254 z m -60.40209,7.89729 c 0,0 -9.64031,43.46949 -9.64031,43.46949 0,0 36.17741,0 36.17741,0 0,0 9.60452,-43.46949 9.60452,-43.46949 0,0 -36.14162,0 -36.14162,0 z m -77.14316,102.59567 c 0.14213,-0.005 0.28392,0 0.42696,0 1.68467,0 3.15606,0.29577 4.33978,0.8537 1.26366,0.59196 2.16724,1.4712 2.66799,2.63237 0.48948,1.12693 0.61747,2.40602 0.35572,3.80618 0,0 -0.10659,0.5336 -0.10659,0.5336 0,0 -4.16192,0 -4.16192,0 -1.9e-4,0 0.0354,-0.49798 0.0354,-0.49798 0.10763,-0.97836 -0.0139,-1.74759 -0.39113,-2.27663 -0.0492,-0.0662 -0.12063,-0.15391 -0.17807,-0.21348 -0.0938,-0.096 -0.23485,-0.20537 -0.35553,-0.2845 -0.58246,-0.36701 -1.49335,-0.5692 -2.66797,-0.5692 -1.55964,0 -2.72496,0.27164 -3.5217,0.81808 -0.77417,0.53499 -1.26364,1.13269 -1.42292,1.84989 -0.15946,0.72846 0.10226,1.11131 0.2845,1.31607 0.005,0.005 0.0288,0.0293 0.0355,0.0355 0.23069,0.19646 1.03159,0.65746 3.5217,1.24506 2.25387,0.54645 3.74643,1.03731 4.58888,1.45853 1.27492,0.64873 2.16563,1.48979 2.63235,2.52552 0.46673,1.02467 0.56922,2.22401 0.2845,3.52169 -0.2845,1.26366 -0.92908,2.42898 -1.88529,3.52169 -0.94471,1.09272 -2.14704,1.9579 -3.59291,2.56133 -1.43419,0.59196 -3.00787,0.92475 -4.62429,0.92475 -2.04911,0 -3.69401,-0.31003 -4.98022,-0.92475 -1.34319,-0.63745 -2.31224,-1.64351 -2.88125,-2.95267 -0.54646,-1.27473 -0.66318,-2.72199 -0.35593,-4.30418 0,0 0.10676,-0.49798 0.10676,-0.49798 0,0 4.0909,0 4.0909,0 0,0 -0.0355,0.49798 -0.0355,0.49798 -0.10244,0.94472 -0.001,1.70743 0.24888,2.27663 0.2392,0.54646 0.69445,0.99893 1.42293,1.35169 0.77417,0.37573 1.74164,0.56922 2.84583,0.56922 0.99042,0 1.89538,-0.16639 2.70359,-0.46237 0.79673,-0.28471 1.43005,-0.66023 1.88529,-1.13842 0.44398,-0.478 0.70434,-0.98329 0.8181,-1.52956 0.11388,-0.48948 0.0868,-0.90357 -0.10659,-1.24505 -0.21625,-0.36423 -0.64459,-0.68732 -1.31628,-0.96035 0,-2.1e-4 -3.48607,-1.03178 -3.48607,-1.03178 -1.94643,-0.48947 -3.25697,-0.9562 -4.01966,-1.42292 -1.03594,-0.61452 -1.78281,-1.40294 -2.17001,-2.34766 -0.38699,-0.93345 -0.42813,-1.968 -0.17767,-3.09492 0.26177,-1.20668 0.84364,-2.35479 1.74305,-3.37925 0.91069,-1.03593 2.08591,-1.84849 3.48607,-2.38346 1.23793,-0.46415 2.54057,-0.73641 3.91283,-0.78249 z m 37.35126,0.0711 c 0.22514,-0.0173 0.43686,0 0.67585,0 0,0 2.56113,0.2845 2.56113,0.2845 0,0 0.85373,0.0712 0.85373,0.0712 1.9e-4,0 -1.24488,3.16595 -1.24488,3.16595 0,0 -0.24908,0.49798 -0.24908,0.49798 0,0 -1.95652,-0.17786 -1.95652,-0.17786 -0.57771,0 -1.00209,0.0893 -1.28066,0.28472 -0.0184,0.0139 -0.0541,0.0562 -0.0711,0.0711 -0.0374,0.0328 -0.10017,0.0898 -0.14229,0.14247 -0.17142,0.22457 -0.37987,0.62599 -0.5336,1.3517 0,0 -0.074,0.30725 -0.1423,0.56921 0.8992,0 3.05912,0 3.05912,0 0,0 -0.78249,3.52169 -0.78249,3.52169 0,0 -2.23687,0 -2.98809,0 -0.22773,1.02444 -3.02371,13.55295 -3.02371,13.55295 0,0 -4.12651,0 -4.12651,0 0,0 2.68221,-12.03903 3.02371,-13.55295 -0.69445,0 -2.38328,0 -2.38328,0 0,0 0.78249,-3.52169 0.78249,-3.52169 0,0 1.69892,0 2.34787,0 0.11369,-0.48948 0.28448,-1.10281 0.28448,-1.10281 0.25049,-1.13842 0.51224,-1.95651 0.85373,-2.52572 0.46692,-0.78546 1.12556,-1.4427 1.95651,-1.92089 0.68456,-0.39769 1.55014,-0.6355 2.52572,-0.71147 z m 9.8536,0.17786 c 0,0 -1.07865,4.85359 -1.35169,6.08302 0.79674,0 2.66778,0 2.66778,0 0,0 -0.78249,3.52169 -0.78249,3.52169 0,0 -1.96226,0 -2.66798,0 -0.21624,0.97874 -1.92089,8.57294 -1.92089,8.57294 0,0 -0.1423,0.91206 -0.1423,1.17383 2.1e-4,0.009 -7.8e-4,0.0291 0,0.0355 5.9e-4,0.003 -7.8e-4,0.0333 0,0.0355 9.9e-4,0.002 0.034,-10e-4 0.0354,0 0,0 0.42694,0.0354 0.42694,0.0354 0,0 1.95652,-0.1423 1.95652,-0.1423 0,0 -0.21348,3.16596 -0.21348,3.16596 0,0 0.0355,0.5692 0.0355,0.5692 0,0 -2.81023,0.32012 -2.81023,0.32012 -1.11547,0 -1.93377,-0.18202 -2.52572,-0.5692 -0.62598,-0.40975 -0.99023,-0.95323 -1.13821,-1.63621 -0.0227,-0.12531 -0.0712,-0.30746 -0.0712,-0.5692 0,-0.51223 0.0967,-1.3788 0.42696,-2.88145 0,0 1.49534,-6.69893 1.81407,-8.11037 -0.53499,0 -1.95632,0 -1.95632,0 0,0 0.78249,-3.52169 0.78249,-3.52169 0,0 1.38731,0 1.95651,0 0.18221,-0.81968 0.81811,-3.62853 0.81811,-3.62853 0,0 3.3084,-1.74303 3.3084,-1.74303 0,0 1.35169,-0.71146 1.35169,-0.71146 z m -131.08476,0.14229 c 0,0 16.00763,0 16.00763,0 0,0 -0.88931,3.98427 -0.88931,3.98427 0,0 -10.67886,0 -11.70336,0 -0.18209,0.80821 -0.91204,4.08081 -1.17386,5.26473 1.47982,0 10.13814,0 10.13814,0 0,0 -0.88932,3.98406 -0.88932,3.98406 0,0 -9.11365,0 -10.13814,0 -0.21629,0.99042 -2.16994,9.78236 -2.16994,9.78236 0,0 -4.30429,0 -4.30429,0 0,0 5.12245,-23.01542 5.12245,-23.01542 z m 21.45025,5.62066 c 0.1606,-0.0198 0.3361,0 0.49797,0 1.02449,0 1.97077,0.31161 2.88141,0.96037 0,0 0.56917,0.39134 0.56917,0.39134 0,0 -2.20552,3.62832 -2.20552,3.62832 0,0 -0.60475,-0.42696 -0.60475,-0.42696 -0.44391,-0.28451 -0.92199,-0.42675 -1.42287,-0.42675 -0.43257,0 -0.83523,0.15373 -1.24503,0.42675 -0.43257,0.28471 -0.794,0.6618 -1.06715,1.17404 -0.4781,0.87646 -0.82818,1.85818 -1.06722,2.91685 0,0 -1.92094,8.7508 -1.92094,8.7508 0,0 -4.12639,0 -4.12639,0 0,0 3.8063,-17.07464 3.8063,-17.07464 0,0 3.84182,0 3.84182,0 0,0 -0.13239,0.51778 -0.1779,0.71127 0.18218,-0.13657 0.37422,-0.32428 0.53364,-0.42676 0.55133,-0.32902 1.1337,-0.53439 1.70746,-0.60463 z m 12.23693,0 c 0.24845,-0.0189 0.49302,0 0.74704,0 2.32215,0 4.07941,0.81375 5.22913,2.41889 0.71714,1.03573 1.1028,2.31641 1.1028,3.8418 0,0.84225 -0.10382,1.74878 -0.32016,2.73901 0,0 -0.32016,1.24505 -0.32016,1.24505 0,0 -10.43556,0 -11.59668,0 -0.0227,0.23901 -0.0355,0.49521 -0.0355,0.71146 0,0.88794 0.18218,1.58654 0.56915,2.09877 0.18393,0.25047 0.39714,0.47603 0.64031,0.64023 0.4585,0.29915 1.05034,0.46257 1.74312,0.46257 0.84232,0 1.58224,-0.23207 2.27661,-0.67584 0.6602,-0.42122 1.29198,-1.09429 1.84978,-2.02774 0,0 4.41098,0 4.41098,0 0,0 -0.39125,0.8537 -0.39125,0.8537 -0.84239,1.70762 -2.01774,3.03935 -3.48615,3.98427 -1.4684,0.94472 -3.22285,1.45833 -5.15802,1.45833 -2.51566,0 -4.38821,-0.81375 -5.54928,-2.41889 -1.14972,-1.5709 -1.39731,-3.74228 -0.78265,-6.47417 0.61477,-2.77758 1.84125,-4.99724 3.62841,-6.54538 1.60186,-1.38891 3.41952,-2.15931 5.44262,-2.31206 z m 18.53336,0 c 0.24829,-0.0189 0.49302,0 0.74687,0 2.32233,0 4.07961,0.81375 5.22931,2.41889 0.71718,1.03573 1.1026,2.31641 1.1026,3.8418 0,0.83097 -0.10382,1.72445 -0.32013,2.7034 0,0 -0.3201,1.28066 -0.3201,1.28066 0,0 -10.43556,0 -11.59663,0 -0.0121,0.15945 -0.0243,0.3031 -0.0355,0.46237 -0.009,0.0598 0.003,0.15061 0,0.21347 -3.3e-4,0.0104 0,0.0257 0,0.0355 0,0.17073 0.0241,0.33872 0.0355,0.49799 0.0568,0.64894 0.22625,1.19104 0.53358,1.60078 0.0586,0.0797 0.11352,0.17807 0.17783,0.2491 0.52136,0.55773 1.25927,0.85371 2.20551,0.85371 0.84238,0 1.5936,-0.23208 2.27657,-0.67585 0.66041,-0.42122 1.29213,-1.09429 1.84988,-2.02774 0,0 4.44642,0 4.44642,0 0,0 -0.42676,0.8537 -0.42676,0.8537 -0.84244,1.70763 -2.01766,3.03935 -3.48608,3.98427 -1.46842,0.94472 -3.22294,1.45834 -5.15801,1.45834 -2.51573,0 -4.38828,-0.81376 -5.54933,-2.41889 -0.75128,-1.02447 -1.10274,-2.32927 -1.10274,-3.87742 0,-0.23901 0.0121,-0.4966 0.0355,-0.74708 0.0456,-0.59175 0.13657,-1.18946 0.28457,-1.84967 0.61468,-2.76611 1.80565,-4.99724 3.59281,-6.54539 1.60181,-1.3889 3.45503,-2.15931 5.47823,-2.31206 z m 50.47725,0 c 0.25424,-0.0196 0.48808,0 0.74708,0 2.36783,0 4.18764,0.80089 5.37136,2.38327 1.17264,1.58219 1.45714,3.71658 0.8539,6.40295 -0.46672,2.09461 -1.14118,3.78641 -2.06334,5.01584 -0.92198,1.22941 -2.0972,2.23389 -3.48608,2.91686 -1.37722,0.68297 -2.83576,1.03158 -4.30418,1.03158 -2.41335,0 -4.21038,-0.82523 -5.37156,-2.41889 -0.75122,-1.01318 -1.13821,-2.31778 -1.13821,-3.87741 0,-0.84224 0.0924,-1.7373 0.3201,-2.739 0.68297,-3.05082 2.0774,-5.37433 4.12632,-6.86551 1.50404,-1.0858 3.16516,-1.71298 4.94461,-1.84969 z m 62.50104,0 c 0.30014,-0.0186 0.57792,0 0.88933,0 1.4342,0 2.56113,0.14507 3.41485,0.49798 0.9107,0.36425 1.55666,0.87924 1.9209,1.49395 0.35296,0.58049 0.5336,1.29353 0.5336,2.16999 0,0 -0.42675,2.59675 -0.42675,2.59675 0,0 -0.7827,3.5217 -0.7827,3.5217 -0.67168,3.00511 -0.81947,4.13204 -0.85371,4.55326 -0.0341,0.5692 0.0184,1.12398 0.17787,1.6364 0,0 0.2845,0.92473 0.2845,0.92473 0,0 -4.19754,0 -4.19754,0 0,0 -0.17786,-0.53358 -0.17786,-0.53358 -0.0683,-0.25029 -0.0484,-0.56901 -0.0711,-0.85372 -0.79693,0.48947 -1.59505,0.92355 -2.31225,1.17383 -1.05867,0.36444 -2.15712,0.56921 -3.27279,0.56921 -1.93494,0 -3.36796,-0.50372 -4.23315,-1.49395 -0.66002,-0.72848 -0.96035,-1.61919 -0.96035,-2.63237 0,-0.38699 0.0513,-0.78822 0.14229,-1.20943 0.1935,-0.86519 0.54508,-1.66628 1.1028,-2.38348 0.54645,-0.70572 1.19243,-1.28621 1.9209,-1.70743 0.70572,-0.4212 1.49256,-0.71995 2.31224,-0.92492 0,0 2.52573,-0.42677 2.52573,-0.42677 1.94642,-0.22772 3.39923,-0.51084 4.44643,-0.8183 0.0227,-0.11369 0.0712,-0.24888 0.0712,-0.24888 0.165,-0.73244 0.14438,-1.28304 -0.0355,-1.56517 -0.0139,-0.0182 -0.0562,-0.0556 -0.0712,-0.0712 -0.0383,-0.0409 -0.0974,-0.1052 -0.1423,-0.14229 -0.42814,-0.33872 -1.1582,-0.49799 -2.13439,-0.49799 -1.10419,0 -1.92089,0.18064 -2.4899,0.53359 -0.55793,0.35277 -1.07432,0.99874 -1.52976,1.92091 0,0 -4.30418,0 -4.30418,0 0,0 0.39115,-0.85371 0.39115,-0.85371 0.51223,-1.18392 1.12279,-2.16584 1.88548,-2.91707 0.76271,-0.75122 1.79289,-1.3333 2.98809,-1.74304 0.91585,-0.30231 1.91616,-0.50293 2.9881,-0.56901 z m 18.0352,0 c 0.16067,-0.0198 0.33614,0 0.49799,0 1.03593,0 2.00637,0.31161 2.91706,0.96037 0,0 0.53359,0.39134 0.53359,0.39134 0,0 -2.20561,3.62832 -2.20561,3.62832 0,0 -0.60461,-0.42696 -0.60461,-0.42696 -0.44397,-0.28451 -0.89804,-0.42675 -1.3873,-0.42675 -0.4327,0 -0.85966,0.15373 -1.28068,0.42675 -0.4327,0.28471 -0.74707,0.6618 -1.03157,1.17404 -0.46674,0.87646 -0.8282,1.85818 -1.0672,2.91685 0,0 -1.95651,8.7508 -1.95651,8.7508 0,0 -4.12651,0 -4.12651,0 0,0 3.80638,-17.07464 3.80638,-17.07464 0,0 3.84182,0 3.84182,0 0,0 -0.0967,0.51778 -0.14229,0.71127 0.18202,-0.13657 0.36286,-0.32428 0.5336,-0.42676 0.54249,-0.32902 1.09845,-0.53439 1.67181,-0.60463 z m 12.20145,0 c 0.24811,-0.0189 0.49305,0 0.74689,0 2.32234,0 4.0909,0.81375 5.2293,2.41889 0.72848,1.03573 1.10261,2.31641 1.10261,3.8418 0,0.84225 -0.13935,1.74878 -0.35572,2.73901 0,0 -0.28451,1.24505 -0.28451,1.24505 0,0 -10.44694,0 -11.59665,0 -0.0227,0.23901 -0.0712,0.49521 -0.0712,0.71146 0,0.88794 0.19368,1.58654 0.5692,2.09877 0.0586,0.0797 0.14906,0.17807 0.21348,0.2491 0.0374,0.0397 0.10295,0.1052 0.14229,0.14229 0.50887,0.46258 1.20155,0.71147 2.06317,0.71147 0.84243,0 1.58238,-0.23208 2.27664,-0.67585 0.66041,-0.42122 1.28066,-1.09429 1.84986,-2.02774 0,0 4.44663,0 4.44663,0 0,0 -0.42695,0.8537 -0.42695,0.8537 -0.84244,1.70762 -2.02913,3.03935 -3.48608,3.98427 -1.47989,0.94472 -3.21147,1.45834 -5.15808,1.45834 -2.51564,0 -4.35266,-0.81376 -5.51363,-2.4189 -1.14968,-1.5709 -1.42152,-3.74227 -0.81829,-6.47417 0.61471,-2.77757 1.80575,-4.99723 3.59291,-6.54538 1.61187,-1.3889 3.45699,-2.15931 5.4782,-2.31206 z m -62.28756,0.32012 c 0,0 4.23315,0 4.23315,0 0,0 0.52211,10.13237 0.53359,10.28037 0.17072,-0.36286 0.30331,-0.66813 0.32012,-0.71146 0,0 4.66009,-9.56891 4.66009,-9.56891 0,0 3.87742,0 3.87742,0 0,0 0.35574,10.0099 0.35574,10.06689 0.1137,-0.20478 5.30013,-10.06689 5.30013,-10.06689 0,0 4.19754,0 4.19754,0 0,0 -9.24878,17.07464 -9.24878,17.07464 0,0 -3.80618,0 -3.80618,0 0,0 -0.3686,-9.25866 -0.39136,-9.78236 -1.57091,3.22153 -4.76674,9.78236 -4.76674,9.78236 0,0 -3.91303,0 -3.91303,0 0,0 -1.35169,-17.07464 -1.35169,-17.07464 z m -99.38959,3.23698 c -0.98056,0.0414 -1.87115,0.39491 -2.70352,1.0672 -0.6602,0.52371 -1.1056,1.24228 -1.45846,2.02754 0,2.1e-4 7.00776,0 7.00776,0 0.0121,-0.12497 0.0355,-0.27738 0.0355,-0.39115 0,-0.64893 -0.11526,-1.15265 -0.32016,-1.49414 -0.50079,-0.81948 -1.24357,-1.20945 -2.34778,-1.20945 -0.0662,0 -0.14802,-0.003 -0.21341,0 z m 18.53323,0 c -0.98054,0.0414 -1.87104,0.39491 -2.7035,1.0672 -0.66019,0.52371 -1.09417,1.24228 -1.45845,2.02754 0,2.1e-4 7.00778,0 7.00778,0 0.0121,-0.12497 0.0357,-0.27738 0.0357,-0.39115 0,-0.64893 -0.10382,-1.15265 -0.32012,-1.49414 -0.0995,-0.16639 -0.23406,-0.33198 -0.35573,-0.46237 -0.47543,-0.49105 -1.12951,-0.74708 -1.99212,-0.74708 -0.0662,0 -0.14802,-0.003 -0.21348,0 z m 143.3574,0 c -1.00843,0.031 -1.95018,0.37255 -2.81042,1.0672 -0.64874,0.52371 -1.0941,1.24228 -1.45833,2.02754 0,2.1e-4 6.97215,0 6.97215,0 0.0121,-0.12497 0.0357,-0.27738 0.0357,-0.39115 0,-0.64893 -0.10382,-1.15265 -0.32012,-1.49414 -0.48947,-0.80821 -1.24368,-1.19797 -2.34786,-1.20945 -0.0326,4e-4 -0.0386,-9.9e-4 -0.0711,0 z m -93.20006,0.0712 c -0.94098,0.11161 -1.81605,0.5411 -2.63237,1.28047 -0.97895,0.88794 -1.68903,2.28237 -2.09877,4.12649 -0.17072,0.77398 -0.24908,1.43579 -0.24908,2.02756 0,0.80821 0.15512,1.44289 0.46256,1.92089 0.0816,0.12288 0.19034,0.25245 0.2845,0.35574 0.5061,0.53734 1.21262,0.81829 2.09877,0.81829 1.1497,0 2.16288,-0.42834 3.13036,-1.31628 0.97894,-0.89922 1.67754,-2.3079 2.09876,-4.19754 0.38699,-1.73017 0.33297,-3.02211 -0.21347,-3.8418 -0.52352,-0.79673 -1.28918,-1.17382 -2.34768,-1.17382 -0.17963,0 -0.35927,-0.0208 -0.53358,0 z m 64.2795,6.22507 c -0.96747,0.26196 -2.05189,0.48235 -3.48608,0.67605 -1.06995,0.15928 -1.83267,0.32723 -2.27663,0.49797 -0.38699,0.15928 -0.6986,0.37988 -0.96056,0.67586 -0.25027,0.28451 -0.41823,0.58324 -0.49798,0.92492 -0.0227,0.13658 -0.0355,0.27739 -0.0355,0.39115 0,0.009 -2.1e-4,0.0265 0,0.0355 10e-4,0.027 -0.003,0.0806 0,0.10677 0.007,0.0515 0.0215,0.12964 0.0355,0.17767 0.005,0.0156 0.0296,0.0558 0.0355,0.0712 0.0121,0.0307 0.0201,0.0777 0.0357,0.10677 0.0156,0.0288 0.052,0.0789 0.0711,0.10659 0.0298,0.0409 0.0704,0.10382 0.10676,0.1423 0.28451,0.31873 0.85232,0.46236 1.67181,0.46236 0.89942,0 1.7644,-0.17072 2.56133,-0.56901 0.78547,-0.38718 1.41858,-0.9649 1.88529,-1.6364 0.3415,-0.478 0.61472,-1.2138 0.85373,-2.16999 z m -217.28233,-28.52179 95.4693,-98.57067 15.59046,0 -23.05124,98.57067 -12.82332,0 6.54516,-28.37436 -40.02228,0 -27.19747,28.37436 -14.51061,0 m 51.43396,-38.52728 32.73323,0 6.03932,-24.74351 c 2.43739,-9.81665 4.78357,-17.99725 7.03857,-24.5418 -4.50645,5.64804 -10.46856,12.34941 -17.88633,20.10409 l -27.92479,29.18113" />
  </g>
</svg>
